<svg xmlns="http://www.w3.org/2000/svg"  viewBox="0 0 32 32" width="32px" height="32px"><path d="M 16 2 A 1.0001 1.0001 0 0 0 14.990234 3.0722656 C 12.607196 3.4129703 10.489255 4.9415554 8.8652344 7.1445312 C 7.0152104 9.6540789 5.7340956 13.07057 5.2382812 16.947266 A 1.0001 1.0001 0 0 0 5.2382812 16.949219 C 5.1694103 17.488179 4.8429879 17.987368 4.3378906 18.341797 A 1.0001 1.0001 0 0 0 4.3359375 18.341797 C 3.6101755 18.852378 3 19.56886 3 20.5 C 3 21.44652 3.6275733 22.170166 4.375 22.685547 C 5.1224267 23.200928 6.0829385 23.59972 7.234375 23.935547 C 8.3665415 24.265754 9.692453 24.523046 11.142578 24.705078 C 11.50095 27.109502 13.500077 29 16 29 C 18.501362 29 20.512979 27.111714 20.869141 24.703125 C 22.314154 24.521155 23.636834 24.26477 24.765625 23.935547 C 25.917061 23.59972 26.877573 23.200928 27.625 22.685547 C 28.372427 22.170166 29 21.44652 29 20.5 C 29 19.56886 28.389822 18.852425 27.664062 18.341797 A 1.0001 1.0001 0 0 0 27.662109 18.341797 C 27.157012 17.987368 26.830589 17.488179 26.761719 16.949219 A 1.0001 1.0001 0 0 0 26.761719 16.947266 C 26.265952 13.070617 24.98479 9.6540788 23.134766 7.1445312 C 21.510744 4.9415554 19.392804 3.4129703 17.009766 3.0722656 A 1.0001 1.0001 0 0 0 16 2 z M 16 5 C 18.016365 5 19.932165 6.1688757 21.525391 8.3300781 C 23.118617 10.491281 24.318158 13.610868 24.777344 17.201172 C 24.926406 18.367687 25.61137 19.344921 26.513672 19.978516 C 26.960307 20.29314 27 20.481165 27 20.5 C 27 20.51998 26.95539 20.716976 26.488281 21.039062 C 26.021177 21.361151 25.225267 21.718077 24.205078 22.015625 C 22.164701 22.61072 19.234681 23 16 23 C 12.765319 23 9.8352989 22.61072 7.7949219 22.015625 C 6.7747334 21.718077 5.9788233 21.36115 5.5117188 21.039062 C 5.0446142 20.716976 5 20.51998 5 20.5 C 5 20.481165 5.0397398 20.29314 5.4863281 19.978516 C 5.4863281 19.978516 5.4882812 19.978516 5.4882812 19.978516 C 6.3905796 19.344921 7.0735939 18.367687 7.2226562 17.201172 C 7.681842 13.610868 8.8813838 10.491281 10.474609 8.3300781 C 12.067835 6.1688757 13.983635 5 16 5 z M 13.347656 24.84375 C 14.227839 24.901602 15.060981 25 16 25 C 16.944531 25 17.783022 24.90227 18.667969 24.84375 C 18.276482 26.043959 17.338621 27 16 27 C 14.662791 27 13.739994 26.042296 13.347656 24.84375 z"/></svg>